<svg width="100%" height="100%" viewBox="0 0 40 40" fill="currentColor" stoke="currentColor" xmlns="http://www.w3.org/2000/svg">
<path d="M31.19 5.00002H9.72C9.36328 4.9987 9.00979 5.06782 8.67984 5.20342C8.34989 5.33902 8.04998 5.53843 7.79727 5.79021C7.54456 6.04199 7.34403 6.34118 7.20721 6.67063C7.0704 7.00007 7 7.35328 7 7.71001V33.44C7.00385 33.8163 7.1138 34.184 7.31723 34.5006C7.52066 34.8173 7.80931 35.0701 8.14999 35.23C8.41058 35.3487 8.69362 35.4101 8.97998 35.41C9.44853 35.4081 9.90154 35.2418 10.26 34.94L20.45 26.2L30.65 34.94C30.9401 35.1725 31.2892 35.3196 31.6582 35.3647C32.0272 35.4098 32.4015 35.3512 32.739 35.1954C33.0766 35.0396 33.364 34.7929 33.5691 34.4828C33.7741 34.1727 33.8887 33.8116 33.9 33.44V7.71001C33.9 6.99127 33.6145 6.30197 33.1062 5.79375C32.598 5.28553 31.9087 5.00002 31.19 5.00002ZM32.3 33.44C32.3 33.5106 32.2804 33.5798 32.2433 33.6399C32.2062 33.6999 32.1531 33.7484 32.09 33.78C32.0247 33.8099 31.9521 33.8202 31.8811 33.8095C31.81 33.7989 31.7436 33.7677 31.69 33.72L20.97 24.54C20.8289 24.4247 20.6523 24.3617 20.47 24.3617C20.2878 24.3617 20.1111 24.4247 19.97 24.54L9.25998 33.72C9.20659 33.769 9.14001 33.8012 9.06848 33.8127C8.99696 33.8241 8.92365 33.8143 8.85764 33.7845C8.79162 33.7547 8.7358 33.7062 8.69711 33.6449C8.65842 33.5837 8.63855 33.5124 8.63998 33.44V7.71001C8.64262 7.4147 8.76177 7.13239 8.97153 6.9245C9.18128 6.71662 9.46466 6.6 9.75998 6.60001H31.23C31.3757 6.60001 31.5201 6.62873 31.6548 6.68451C31.7894 6.7403 31.9118 6.82206 32.0149 6.92513C32.1179 7.0282 32.1997 7.15056 32.2555 7.28524C32.3113 7.41991 32.34 7.56424 32.34 7.71001L32.3 33.44Z" fill="#4D4D4F"/>
</svg>
